<svg width="117" height="117" viewBox="0 0 117 117" fill="none" xmlns="http://www.w3.org/2000/svg"><g clip-path="url(#clip0_1_7)"><path fill-rule="evenodd" clip-rule="evenodd" d="M35.6959 59.7519L64.193 109.116L51.0967 109.239L43.4881 95.9763L35.8256 109.167L29.3192 109.165L25.9864 103.407L36.903 84.6361L29.1542 71.1515L35.6959 59.7519Z" fill="#5277C3"/><path fill-rule="evenodd" clip-rule="evenodd" d="M45.9817 39.4181L17.479 88.7795L10.8245 77.4985L18.506 64.2796L3.25088 64.2396L0 58.6031L3.32055 52.8379L25.0343 52.9061L32.8376 39.4525L45.9817 39.4181Z" fill="#7EBAE4"/><path fill-rule="evenodd" clip-rule="evenodd" d="M48.168 78.8765L105.167 78.88L98.7252 90.2829L83.4359 90.2406L91.0288 103.471L87.7732 109.105L81.1196 109.113L70.3225 90.2735L54.7692 90.2418L48.168 78.8765Z" fill="#7EBAE4"/><path fill-rule="evenodd" clip-rule="evenodd" d="M81.3429 57.2482L52.8458 7.88442L65.942 7.76141L73.5506 21.0238L81.2132 7.83196L87.7196 7.83429L91.0527 13.5927L80.1358 32.3628L87.8846 45.8485L81.3429 57.2482Z" fill="#7EBAE4"/><path fill-rule="evenodd" clip-rule="evenodd" d="M35.6959 59.7519L64.193 109.116L51.0968 109.239L43.4881 95.9763L35.8256 109.167L29.3192 109.165L25.9864 103.407L36.903 84.6361L29.1542 71.1515L35.6959 59.7519Z" fill="#5277C3"/><path fill-rule="evenodd" clip-rule="evenodd" d="M68.7956 37.9982L11.7958 37.995L18.2384 26.5918L33.5279 26.6352L25.9351 13.4035L29.1906 7.76922L35.8428 7.76251L46.6411 26.6011L62.1935 26.6329L68.7956 37.9982Z" fill="#5277C3"/><path fill-rule="evenodd" clip-rule="evenodd" d="M71.0183 77.5703L99.521 28.21L106.175 39.4901L98.494 52.7103L113.749 52.7502L117 58.3868L113.68 64.1519L91.9657 64.0825L84.1624 77.5361L71.0183 77.5703Z" fill="#5277C3"/></g><defs><clipPath id="clip0_1_7"><rect width="117" height="117" fill="white"/></clipPath></defs></svg>
