<svg width="24" height="24" viewBox="0 0 24 24" fill="none" xmlns="http://www.w3.org/2000/svg">
<path fill-rule="evenodd" clip-rule="evenodd" d="M6.23781 22.3025C3.54201 22.3025 1.82255 20.7881 1.82255 18.6833C1.82255 17.99 2.02792 17.1434 2.82357 15.4235H0L2.59233 9.87865H20.6375C21.0483 9.87865 21.3305 9.57097 21.3305 9.21194C21.3305 8.85214 21.0483 8.54407 20.6375 8.54407H6.03204L7.31566 5.79771C8.11131 4.10372 9.83117 3 11.7047 3H17.8398C21.3818 3 24 5.4383 24 8.6209C24 12.3945 20.5348 15.4235 16.5307 15.4235H4.67199C4.31219 16.1678 4.72294 16.7585 5.5958 16.7585H15.0417C16.6075 16.7585 17.8139 17.8618 17.8139 19.2736C17.8139 20.8907 16.2485 22.3025 14.4769 22.3025H6.23781Z" fill="black"/>
</svg>
