<svg width="24" height="21" viewBox="0 0 24 21" fill="none" xmlns="http://www.w3.org/2000/svg">
<path fill-rule="evenodd" clip-rule="evenodd" d="M21.2225 0.305268C22.2326 0.651289 23.1194 1.28544 23.7733 2.12948C23.9276 2.32479 24.0038 3.4615 23.9999 4.57868C23.9999 5.59625 23.9335 6.63726 23.8045 6.97906C23.795 7.00697 23.7826 7.03381 23.7674 7.05913C23.0501 8.10382 21.9547 8.82871 20.7128 9.08061C19.6225 9.32725 18.4818 9.21701 17.4589 8.76615V16.8286H13.7929V7.98491C13.7929 7.4771 13.8222 7.00835 13.8671 6.56304C13.9091 6.13534 13.9743 5.71024 14.0624 5.28961C14.2969 4.08394 14.8047 2.94809 15.5468 1.96932C16.2023 1.12235 17.1109 0.506565 18.1405 0.211519C19.1539 -0.0705675 20.2294 -0.0358086 21.2225 0.311127V0.305268ZM6.04293 1.56307C6.39713 1.74509 6.71911 1.98393 6.99605 2.2701C7.30018 2.57915 7.5628 2.92647 7.7773 3.3033C7.80771 3.36481 7.81352 3.43562 7.79353 3.50126C7.77354 3.56691 7.72926 3.62247 7.66973 3.65659C7.61019 3.69072 7.53988 3.70085 7.47313 3.68493C7.40638 3.669 7.34822 3.62821 7.3105 3.57087C7.11961 3.23478 6.88589 2.9249 6.61519 2.649C6.37928 2.40602 6.10556 2.20286 5.80465 2.04745C5.74189 2.01524 5.69426 1.95971 5.67197 1.89278C5.64969 1.82585 5.65454 1.75285 5.68547 1.68946C5.7164 1.62606 5.77095 1.57731 5.83742 1.55368C5.90389 1.53006 5.97697 1.53343 6.04098 1.56307H6.04293ZM21.2889 2.73494H21.5057C21.6437 2.73546 21.7758 2.79063 21.8732 2.88837C21.9706 2.98611 22.0253 3.11845 22.0253 3.25642V5.65875C22.0253 5.79672 21.9706 5.92907 21.8732 6.02681C21.7758 6.12455 21.6437 6.17972 21.5057 6.18023H21.2889C21.1508 6.17972 21.0184 6.12461 20.9208 6.02693C20.8231 5.92924 20.768 5.7969 20.7675 5.65875V3.25838C20.768 3.12023 20.8231 2.98789 20.9208 2.8902C21.0184 2.79252 21.1508 2.73741 21.2889 2.73689V2.73494ZM18.3085 1.68612C18.3397 1.75042 18.3442 1.82442 18.3212 1.89206C18.2981 1.9597 18.2494 2.01553 18.1854 2.04745C17.887 2.20311 17.6159 2.40628 17.3827 2.649C17.1087 2.92391 16.8722 3.23389 16.6796 3.57087C16.662 3.60165 16.6386 3.62867 16.6105 3.65038C16.5825 3.67209 16.5505 3.68808 16.5163 3.69742C16.4822 3.70676 16.4465 3.70927 16.4113 3.70482C16.3761 3.70036 16.3422 3.68903 16.3114 3.67146C16.2806 3.65389 16.2536 3.63043 16.2319 3.60242C16.2102 3.57441 16.1942 3.5424 16.1849 3.50821C16.1755 3.47402 16.173 3.43833 16.1775 3.40317C16.1819 3.36801 16.1933 3.33408 16.2108 3.3033C16.4253 2.92647 16.688 2.57915 16.9921 2.2701C17.2694 1.98436 17.5913 1.74557 17.9452 1.56307C18.0095 1.5319 18.0835 1.52734 18.1511 1.55038C18.2188 1.57341 18.2746 1.62219 18.3065 1.68612H18.3085ZM2.48827 2.73689H2.70506C2.84269 2.73793 2.97433 2.79332 3.07128 2.89101C3.16824 2.98869 3.22264 3.12074 3.22264 3.25838V5.65875C3.22264 5.79672 3.16796 5.92907 3.07059 6.02681C2.97322 6.12455 2.84108 6.17972 2.70311 6.18023H2.48631C2.34817 6.17972 2.21582 6.12461 2.11814 6.02693C2.02045 5.92924 1.96535 5.7969 1.96483 5.65875V3.25838C1.96535 3.12023 2.02045 2.98789 2.11814 2.8902C2.21582 2.79252 2.34817 2.73741 2.48631 2.73689H2.48827ZM2.77733 0.305268C3.77103 -0.039741 4.8465 -0.0724551 5.85934 0.211519C6.88892 0.506565 7.79754 1.12235 8.45307 1.96932C9.19583 2.9479 9.7043 4.08378 9.93939 5.28961C10.0273 5.7083 10.0925 6.13145 10.1347 6.55718C10.1796 7.00054 10.2031 7.47124 10.2089 7.97905V16.8286H6.54098V8.76615C5.51635 9.21829 4.37339 9.32854 3.28123 9.08061C2.03927 8.82871 0.943883 8.10382 0.226561 7.05913C0.213458 7.03357 0.202987 7.00674 0.195311 6.97906C0.0664058 6.63726 0 5.59625 0 4.57868C0 3.4615 0.0722652 2.33065 0.226561 2.12948C0.880503 1.28544 1.76722 0.651289 2.77733 0.305268ZM10.1992 17.9634V18.9848C10.2441 21.1333 6.47262 21.2485 6.53316 18.9575V17.9634H10.1992ZM13.7851 17.9634H17.4589V18.9614C17.5194 21.2524 13.748 21.1352 13.7929 18.9888V17.9634H13.7851Z" fill="black"/>
</svg>